<svg viewBox="0 0 50.502 6.66113" xmlns="http://www.w3.org/2000/svg" xmlns:xlink="http://www.w3.org/1999/xlink" width="50.501953" height="6.661133" fill="none" customFrame="#000000">
	<path id="Arrow 2" d="M0 -0.5L50 -0.5L50 0.5L0 0.5L0 -0.5ZM49.2929 0L46.818 -2.47487C46.62 -2.67286 46.62 -2.98399 46.818 -3.18198C47.016 -3.37997 47.3271 -3.37997 47.5251 -3.18198L50.3536 -0.353554C50.5515 -0.155564 50.5515 0.155564 50.3536 0.353554L47.5251 3.18198C47.3271 3.37997 47.016 3.37997 46.818 3.18198C46.62 2.98399 46.62 2.67286 46.818 2.47487L49.2929 0Z" fill="rgb(244.375,2.03646,161.98)" fill-rule="nonzero" transform="matrix(-1,-2.60209e-17,2.60209e-17,-1,50.502,3.33057)" />
</svg>
