<svg width="26.212646" height="26.212765" viewBox="0 0 26.2126 26.2128" fill="none" xmlns="http://www.w3.org/2000/svg" xmlns:xlink="http://www.w3.org/1999/xlink">
	<desc>
			Created with Pixso.
	</desc>
	<defs/>
	<rect width="26.212765" height="26.212765" fill="#FFFFFF" fill-opacity="0"/>
	<path d="M23.82 6.71C23.08 7.04 22.28 7.26 21.44 7.36C22.3 6.85 22.95 6.03 23.27 5.06C22.46 5.54 21.57 5.89 20.62 6.07C19.87 5.26 18.79 4.76 17.59 4.76C15.3 4.76 13.44 6.62 13.44 8.92C13.44 9.24 13.47 9.56 13.54 9.86C10.09 9.69 7.03 8.03 4.98 5.52C4.62 6.13 4.42 6.85 4.42 7.61C4.42 9.05 5.15 10.32 6.27 11.07C5.59 11.04 4.95 10.86 4.38 10.55L4.38 10.6C4.38 12.61 5.82 14.29 7.72 14.67C7.37 14.77 7 14.82 6.62 14.82C6.35 14.82 6.09 14.79 5.84 14.74C6.37 16.39 7.9 17.59 9.72 17.63C8.3 18.74 6.51 19.4 4.56 19.4C4.23 19.4 3.89 19.38 3.57 19.34C5.41 20.53 7.59 21.21 9.94 21.21C17.58 21.21 21.76 14.88 21.76 9.39L21.75 8.85C22.56 8.27 23.27 7.54 23.82 6.71Z" fill="#010002" fill-opacity="1.000000" fill-rule="nonzero"/>
	<mask id="mask2_33" mask-type="alpha" maskUnits="userSpaceOnUse" x="3.574463" y="4.765953" width="20.255285" height="16.453112">
		<path d="M23.82 6.71C23.08 7.04 22.28 7.26 21.44 7.36C22.3 6.85 22.95 6.03 23.27 5.06C22.46 5.54 21.57 5.89 20.62 6.07C19.87 5.26 18.79 4.76 17.59 4.76C15.3 4.76 13.44 6.62 13.44 8.92C13.44 9.24 13.47 9.56 13.54 9.86C10.09 9.69 7.03 8.03 4.98 5.52C4.62 6.13 4.42 6.85 4.42 7.61C4.42 9.05 5.15 10.32 6.27 11.07C5.59 11.04 4.95 10.86 4.38 10.55L4.38 10.6C4.38 12.61 5.82 14.29 7.72 14.67C7.37 14.77 7 14.82 6.62 14.82C6.35 14.82 6.09 14.79 5.84 14.74C6.37 16.39 7.9 17.59 9.72 17.63C8.3 18.74 6.51 19.4 4.56 19.4C4.23 19.4 3.89 19.38 3.57 19.34C5.41 20.53 7.59 21.21 9.94 21.21C17.58 21.21 21.76 14.88 21.76 9.39L21.75 8.85C22.56 8.27 23.27 7.54 23.82 6.71Z" fill="#010002" fill-opacity="1.000000" fill-rule="nonzero"/>
	</mask>
	<g mask="url(#mask2_33)">
		<rect width="26.212765" height="26.212765" fill="#FFFFFF" fill-opacity="0"/>
		<rect width="26.212765" height="26.212765" fill="#FFFFFF" fill-opacity="1.000000"/>
	</g>
</svg>
