<svg viewBox="0 0 50 50" xmlns="http://www.w3.org/2000/svg" xmlns:xlink="http://www.w3.org/1999/xlink" width="50.000000" height="50.000000" fill="none" customFrame="#000000">
	<defs>
		<linearGradient id="paint_linear_0" x1="6.24999809" x2="43.7500153" y1="9.29688644" y2="40.7031441" gradientUnits="userSpaceOnUse">
			<stop stop-color="rgb(255,255,255)" offset="0" stop-opacity="1" />
			<stop stop-color="rgb(205,208,208)" offset="0.100000001" stop-opacity="1" />
			<stop stop-color="rgb(165,172,175)" offset="0.200000003" stop-opacity="1" />
			<stop stop-color="rgb(152,160,164)" offset="0.300000012" stop-opacity="1" />
			<stop stop-color="rgb(130,138,143)" offset="0.400000006" stop-opacity="1" />
			<stop stop-color="rgb(102,112,117)" offset="0.5" stop-opacity="1" />
			<stop stop-color="rgb(83,92,99)" offset="0.600000024" stop-opacity="1" />
			<stop stop-color="rgb(71,81,88)" offset="0.699999988" stop-opacity="1" />
			<stop stop-color="rgb(67,77,84)" offset="0.800000012" stop-opacity="1" />
			<stop stop-color="rgb(71,81,87)" offset="1" stop-opacity="1" />
		</linearGradient>
		<linearGradient id="paint_linear_1" x1="7.42186928" x2="42.5781097" y1="10.234375" y2="39.765625" gradientUnits="userSpaceOnUse">
			<stop stop-color="rgb(11,31,42)" offset="0" stop-opacity="1" />
			<stop stop-color="rgb(51,63,71)" offset="0.200000003" stop-opacity="1" />
			<stop stop-color="rgb(129,137,141)" offset="0.5" stop-opacity="1" />
			<stop stop-color="rgb(179,184,184)" offset="0.699999988" stop-opacity="1" />
			<stop stop-color="rgb(222,224,221)" offset="0.800000012" stop-opacity="1" />
			<stop stop-color="rgb(251,251,251)" offset="1" stop-opacity="1" />
		</linearGradient>
		<linearGradient id="paint_linear_2" x1="33.5723419" x2="16.4629536" y1="48.5211639" y2="1.4899292" gradientUnits="userSpaceOnUse">
			<stop stop-color="rgb(225,227,225)" offset="0" stop-opacity="1" />
			<stop stop-color="rgb(193,197,196)" offset="0.100000001" stop-opacity="1" />
			<stop stop-color="rgb(155,161,162)" offset="0.300000012" stop-opacity="1" />
			<stop stop-color="rgb(125,132,135)" offset="0.5" stop-opacity="1" />
			<stop stop-color="rgb(104,112,116)" offset="0.699999988" stop-opacity="0" />
			<stop stop-color="rgb(91,100,105)" offset="0.800000012" stop-opacity="0" />
			<stop stop-color="rgb(87,96,101)" offset="1" stop-opacity="0" />
		</linearGradient>
		<linearGradient id="paint_linear_3" x1="14.2187538" x2="35.7812538" y1="6.328125" y2="43.671875" gradientUnits="userSpaceOnUse">
			<stop stop-color="rgb(225,227,225)" offset="0" stop-opacity="1" />
			<stop stop-color="rgb(193,197,196)" offset="0.100000001" stop-opacity="1" />
			<stop stop-color="rgb(155,161,162)" offset="0.300000012" stop-opacity="1" />
			<stop stop-color="rgb(125,132,135)" offset="0.5" stop-opacity="1" />
			<stop stop-color="rgb(104,112,116)" offset="0.699999988" stop-opacity="0" />
			<stop stop-color="rgb(91,100,105)" offset="0.800000012" stop-opacity="0" />
			<stop stop-color="rgb(87,96,101)" offset="1" stop-opacity="0" />
		</linearGradient>
		<linearGradient id="paint_linear_4" x1="34.765625" x2="33.4375" y1="30.7812614" y2="32.9687614" gradientUnits="userSpaceOnUse">
			<stop stop-color="rgb(39,52,60)" offset="0" stop-opacity="1" />
			<stop stop-color="rgb(0,17,30)" offset="1" stop-opacity="0" />
		</linearGradient>
		<linearGradient id="paint_linear_5" x1="30.9374962" x2="28.7499981" y1="22.7343712" y2="19.2187538" gradientUnits="userSpaceOnUse">
			<stop stop-color="rgb(2,19,31)" offset="0.100000001" stop-opacity="1" />
			<stop stop-color="rgb(2,19,31)" offset="0.899999976" stop-opacity="0" />
		</linearGradient>
		<linearGradient id="paint_linear_6" x1="25.0000019" x2="21.7187538" y1="28.4375076" y2="29.3750076" gradientUnits="userSpaceOnUse">
			<stop stop-color="rgb(2,19,31)" offset="0.200000003" stop-opacity="1" />
			<stop stop-color="rgb(2,19,31)" offset="0.899999976" stop-opacity="0" />
		</linearGradient>
		<linearGradient id="paint_linear_7" x1="16.25" x2="15.7812519" y1="32.7343788" y2="31.5625019" gradientUnits="userSpaceOnUse">
			<stop stop-color="rgb(2,19,31)" offset="0" stop-opacity="1" />
			<stop stop-color="rgb(2,19,31)" offset="0.100000001" stop-opacity="1" />
			<stop stop-color="rgb(2,19,31)" offset="1" stop-opacity="0" />
		</linearGradient>
		<linearGradient id="paint_linear_8" x1="27.8125076" x2="25.1562557" y1="13.4375076" y2="13.7500038" gradientUnits="userSpaceOnUse">
			<stop stop-color="rgb(2,19,31)" offset="0.300000012" stop-opacity="1" />
			<stop stop-color="rgb(2,19,31)" offset="0.800000012" stop-opacity="0" />
		</linearGradient>
		<linearGradient id="paint_linear_9" x1="27.8906326" x2="26.0937557" y1="13.3593826" y2="13.5937538" gradientUnits="userSpaceOnUse">
			<stop stop-color="rgb(39,52,60)" offset="0.400000006" stop-opacity="1" />
			<stop stop-color="rgb(59,71,78)" offset="1" stop-opacity="0" />
		</linearGradient>
		<linearGradient id="paint_linear_10" x1="-0.312503815" x2="21.4843693" y1="25.7031155" y2="38.2812424" gradientUnits="userSpaceOnUse">
			<stop stop-color="rgb(37,50,59)" offset="0" stop-opacity="0" />
			<stop stop-color="rgb(39,52,60)" offset="0.100000001" stop-opacity="1" />
		</linearGradient>
		<linearGradient id="paint_linear_11" x1="25" x2="25" y1="29.2187614" y2="25.4687614" gradientUnits="userSpaceOnUse">
			<stop stop-color="rgb(165,171,175)" offset="0.300000012" stop-opacity="1" />
			<stop stop-color="rgb(165,171,175)" offset="1" stop-opacity="0" />
		</linearGradient>
		<linearGradient id="paint_linear_12" x1="37.2656288" x2="37.2656288" y1="1.796875" y2="49.4531174" gradientUnits="userSpaceOnUse">
			<stop stop-color="rgb(107,115,120)" offset="0" stop-opacity="1" />
			<stop stop-color="rgb(51,63,71)" offset="0.200000003" stop-opacity="1" />
			<stop stop-color="rgb(39,52,60)" offset="0.5" stop-opacity="1" />
			<stop stop-color="rgb(51,63,71)" offset="0.800000012" stop-opacity="1" />
			<stop stop-color="rgb(67,77,84)" offset="1" stop-opacity="1" />
		</linearGradient>
		<linearGradient id="paint_linear_13" x1="44.765625" x2="34.2187538" y1="6.32812023" y2="21.7968693" gradientUnits="userSpaceOnUse">
			<stop stop-color="rgb(73,84,91)" offset="0.699999988" stop-opacity="1" />
			<stop stop-color="rgb(255,255,255)" offset="0.800000012" stop-opacity="0" />
		</linearGradient>
	</defs>
	<g id="Group">
		<path id="outer_24_" d="M49.4531 25C49.4531 38.5156 38.5156 49.4531 25 49.4531C11.4844 49.4531 0.546875 38.5156 0.546875 25C0.546875 11.4844 11.4844 0.546875 25 0.546875C38.5156 0.546875 49.4531 11.4844 49.4531 25ZM25 2.03125C12.2656 2.03125 2.03125 12.2656 2.03125 25C2.03125 37.7344 12.3438 47.9688 25 47.9688C37.7344 47.9688 47.9688 37.6563 47.9688 25C47.9688 12.2656 37.7344 2.03125 25 2.03125Z" fill="url(#paint_linear_0)" fill-rule="nonzero" />
		<path id="Vector" d="M25 2.03125C12.2656 2.03125 2.03125 12.2656 2.03125 25C2.03125 37.7344 12.3437 47.9688 25 47.9688C37.7344 47.9688 47.9688 37.6562 47.9688 25C47.9688 12.2656 37.7344 2.03125 25 2.03125ZM25 46.4844C13.125 46.4844 3.51562 36.875 3.51562 25C3.51562 13.125 13.125 3.51562 25 3.51562C36.875 3.51562 46.4844 13.125 46.4844 25C46.4844 36.875 36.875 46.4844 25 46.4844Z" fill="url(#paint_linear_1)" fill-rule="nonzero" />
		<path id="Vector" d="M25 49.4531C38.5156 49.4531 49.4531 38.5156 49.4531 25C49.4531 11.4844 38.5156 0.546875 25 0.546875C11.4844 0.546875 0.546875 11.4844 0.546875 25C0.546875 38.5156 11.4844 49.4531 25 49.4531ZM25 0C38.75 0 50 11.25 50 25C50 38.75 38.75 50 25 50C11.25 50 0 38.75 0 25C0 11.25 11.25 0 25 0Z" opacity="0.400000006" fill="url(#paint_linear_2)" fill-rule="nonzero" />
		<path id="Vector" d="M1.71875 25.0781C1.71875 12.2656 12.1094 1.71875 25 1.71875C37.8906 1.71875 48.2813 12.1875 48.2813 25.0781C48.2813 37.8906 37.8906 48.2813 25 48.2813C12.1094 48.2813 1.71875 37.8906 1.71875 25.0781ZM8.98438 8.98438C4.84375 13.125 2.26562 18.8281 2.26562 25.0781C2.26562 31.3281 4.84375 37.0312 8.90625 41.0938C13.0469 45.1563 18.75 47.7344 25 47.7344C31.25 47.7344 36.9531 45.2344 41.0156 41.0938C45.1563 37.0312 47.6563 31.3281 47.6563 25.0781C47.6563 18.8281 45.0781 13.125 41.0156 8.98438C36.9531 4.84375 31.25 2.26562 25 2.26562C18.75 2.26562 13.0469 4.84375 8.98438 8.98438Z" fill="rgb(255,255,255)" fill-rule="nonzero" />
		<path id="Vector" d="M25 46.5625C19.2188 46.5625 13.8281 44.2969 9.76562 40.2344C5.70313 36.1719 3.4375 30.7813 3.4375 25C3.4375 19.2188 5.70313 13.8281 9.76562 9.76562C13.8281 5.70313 19.2188 3.4375 25 3.4375C30.7813 3.4375 36.1719 5.70313 40.2344 9.76562C44.2969 13.8281 46.5625 19.2188 46.5625 25C46.5625 30.7813 44.2969 36.1719 40.2344 40.2344C36.1719 44.2969 30.7813 46.5625 25 46.5625ZM25 45.9375C30.5469 45.9375 35.8594 43.75 39.7656 39.8438C43.75 35.8594 45.8594 30.625 45.8594 25.0781C45.8594 19.5312 43.6719 14.2188 39.7656 10.3125C35.7813 6.32812 30.5469 4.21875 25 4.21875C19.4531 4.21875 14.1406 6.40625 10.2344 10.3125C6.25 14.1406 4.0625 19.4531 4.0625 25C4.0625 30.5469 6.25 35.8594 10.1563 39.7656C14.1406 43.75 19.4531 45.9375 25 45.9375Z" opacity="0.400000006" fill="url(#paint_linear_3)" fill-rule="nonzero" />
		<path id="Vector" d="M43.9844 35.1562C43.5938 34.8437 28.5156 22.8906 28.5156 22.8906L25 2.8125C24.7656 2.89062 24.4531 3.125 24.2969 3.4375L21.7969 22.9687L6.25 34.9219C6.25 34.9219 5.9375 35.3125 5.78125 35.5469C5.70312 35.7031 5.70312 35.9375 5.70312 36.1719L24.9219 28.2812L44.1406 36.1719C44.2969 35.7812 44.1406 35.3906 43.9844 35.1562Z" fill="rgb(255,255,255)" fill-rule="nonzero" />
		<path id="Vector" d="M25.1562 25.625L25 29.2188L42.6562 36.3281C43.2812 36.6406 43.75 36.4844 44.2188 36.1719L25.3906 25.5469C25.3125 25.4688 25.1562 25.5469 25.1562 25.625Z" fill="rgb(86,95,100)" fill-rule="nonzero" />
		<path id="Vector" d="M25.1562 25.625C25.1562 25.625 26.1719 27.4219 27.3438 28.6719C28.9844 30.4688 31.1719 31.7188 31.1719 31.7188L42.6562 36.3281C43.2812 36.6406 43.75 36.4844 44.2188 36.1719L25.3906 25.5469C25.3125 25.4688 25.1562 25.5469 25.1562 25.625Z" fill="url(#paint_linear_4)" fill-rule="nonzero" />
		<path id="Vector" d="M44.1406 35.4688C44.1406 35.3906 44.0625 35.3125 43.9844 35.1563L27.8906 23.3594L25.7031 24.7656C25.7031 24.7656 25.8594 24.8438 25.9375 24.7656C26.1719 24.6875 26.6406 24.6094 27.1094 24.7656C27.5 24.9219 44.1406 35.5469 44.1406 35.5469C44.1406 35.5469 44.1406 35.5469 44.1406 35.4688Z" fill="rgb(164,170,174)" fill-opacity="0.600000024" fill-rule="nonzero" />
		<path id="Vector" d="M43.5937 34.7656L28.5937 22.8906L27.8906 23.3594L43.9844 35.2344C43.9062 35.0781 43.75 34.9219 43.5937 34.7656Z" fill="rgb(51,62,70)" fill-rule="nonzero" />
		<path id="Vector" d="M25.3906 24.4531C25.3125 24.5313 25.3125 24.5313 25.3125 24.5313C25.3125 24.5313 25.3125 24.6875 25.4688 24.6094C25.5469 24.5313 27.8125 23.3594 28.5938 22.8906L25.8594 4.14063C25.7812 3.4375 25.4688 3.125 24.9219 2.89062L25.2344 24.6094L25.3906 24.4531Z" fill="rgb(86,95,100)" fill-rule="nonzero" />
		<path id="Vector" d="M24.0625 4.14063L24.0625 5.15625L22.3438 22.4219C22.3438 22.6563 22.4219 22.8906 22.6562 23.0469L23.6719 23.8281L24.375 4.76563L24.4531 3.28125C24.2187 3.4375 24.1406 3.75 24.0625 4.14063Z" fill="rgb(164,170,174)" fill-opacity="0.600000024" fill-rule="nonzero" />
		<path id="Vector" d="M23.125 24.1406L22.1875 23.3594L6.32813 34.8438C6.32813 34.8438 5.85938 35.1563 5.78125 35.4688L6.32813 35.1563L22.9688 24.6875C23.2813 24.5312 23.3594 24.375 23.125 24.1406Z" fill="rgb(164,170,174)" fill-opacity="0.600000024" fill-rule="nonzero" />
		<path id="Vector" d="M24.7656 25.625C24.7656 25.5469 24.6875 25.4688 24.6094 25.5469L5.70312 36.25C6.17188 36.5625 6.64062 36.6406 7.26562 36.4063L24.9219 29.2969L24.7656 25.625Z" fill="rgb(86,95,100)" fill-rule="nonzero" />
		<path id="Vector" d="M25.3125 24.5312L25.3906 24.4531C25.3125 24.5312 25.3125 24.5312 25.3125 24.5312C25.3125 24.5312 25.3125 24.6094 25.3906 24.6094L25.4687 24.6094C25.5469 24.5312 27.8125 23.3594 28.5937 22.8906L28.2812 20.625L25.8594 4.14062C25.8594 3.82812 25.7812 3.59375 25.625 3.4375C25.625 3.4375 26.7969 19.2187 26.7969 20.9375C26.7969 23.2031 25.3125 24.5312 25.3125 24.5312Z" fill="url(#paint_linear_5)" fill-rule="nonzero" />
		<path id="Vector" d="M24.7656 25.625C24.7656 25.5469 24.6875 25.4688 24.6094 25.5469L5.70312 36.25C6.17188 36.5625 6.64062 36.6406 7.26562 36.4063L24.9219 29.2969L24.7656 25.625Z" fill="url(#paint_linear_6)" fill-opacity="0.800000012" fill-rule="nonzero" />
		<path id="Vector" d="M7.26563 36.3281L24.9219 29.2188L24.7656 25.7812C24.4531 26.7188 23.9063 27.7344 22.4219 28.5156C21.3281 29.1406 10.8594 34.2969 7.10938 36.0938C6.875 36.25 6.5625 36.3281 6.40625 36.4062C6.71875 36.5625 6.95313 36.4844 7.26563 36.3281Z" opacity="0.800000012" fill="url(#paint_linear_7)" fill-rule="nonzero" />
		<path id="Vector" d="M25.3906 24.4531C25.3125 24.5313 25.3125 24.5313 25.3125 24.5313C25.3125 24.5313 25.3125 24.6875 25.4688 24.6094C25.5469 24.5313 27.8125 23.3594 28.5938 22.8906L25.8594 4.14063C25.7812 3.4375 25.4688 3.125 24.9219 2.89062L25.2344 24.6094L25.3906 24.4531Z" fill="url(#paint_linear_8)" fill-rule="nonzero" />
		<path id="Vector" d="M25.3906 24.4531C25.3125 24.5313 25.3125 24.5313 25.3125 24.5313C25.3125 24.5313 25.3125 24.6875 25.4688 24.6094C25.5469 24.5313 27.8125 23.3594 28.5938 22.8906L25.8594 4.14063C25.7812 3.4375 25.4688 3.125 24.9219 2.89062L25.2344 24.6094L25.3906 24.4531Z" fill="url(#paint_linear_9)" fill-rule="nonzero" />
		<path id="Vector" d="M3.98438 34.6875C3.4375 33.4375 0.3125 27.3437 3.75 15.625L2.42188 15.625C1.71875 17.9688 1.17188 19.375 0.859375 21.4844C0.859375 21.4844 0.703125 22.2656 0.625 23.125C0.546875 23.9844 0.546875 24.4531 0.546875 25C0.546875 29.6875 1.71875 32.4219 1.71875 32.4219C2.96875 36.3281 5.15625 39.8437 8.125 42.5C10.7031 44.7656 14.6875 46.4844 17.9688 47.1094C17.4219 47.0312 8.04688 43.0469 3.98438 34.6875Z" fill="url(#paint_linear_10)" fill-rule="nonzero" />
		<path id="Vector" d="M25.3125 25.4688L24.6094 25.4688C24.6875 25.4688 24.7656 25.4688 24.7656 25.5469L24.9219 29.1406L25 29.1406L25.1563 25.5469C25.1563 25.4688 25.2344 25.3906 25.3125 25.4688Z" fill="url(#paint_linear_11)" fill-rule="nonzero" />
		<path id="Vector" d="M32.8125 1.79688C41.0156 4.92187 48.75 13.5156 48.75 24.375C48.75 37.5 38.2812 48.2031 25 48.2031L25 49.4531C38.2812 49.4531 49.4531 38.5156 49.4531 25C49.4531 14.2187 42.5781 5.15625 32.8125 1.79688Z" fill="url(#paint_linear_12)" fill-rule="nonzero" />
		<path id="Vector" />
		<path id="Vector" d="M45.9375 15.7812C40.4688 3.20312 28.125 2.5 27.4219 2.42188C27.4219 2.42188 27.4219 2.42188 27.3438 2.42188C36.7969 4.14062 42.8125 10.3125 44.9219 16.7969L44.9219 16.875C45.8594 19.375 46.3281 22.0312 46.4062 24.9219C46.4844 27.6562 45.8594 30.7031 44.6875 33.5156C44.6094 33.9062 44.5313 34.375 44.4531 34.375L45.7031 34.375C49.4531 27.3438 47.8125 20.2344 45.9375 15.7812Z" fill="url(#paint_linear_13)" fill-rule="nonzero" />
		<path id="Vector" d="M1.71875 25.0781C1.71875 12.2656 12.1094 1.71875 25 1.71875C37.8906 1.71875 48.2813 12.1875 48.2813 25.0781C48.2813 37.8906 37.8906 48.2813 25 48.2813C12.1094 48.2813 1.71875 37.8906 1.71875 25.0781ZM8.98438 8.98438C4.84375 13.125 2.26562 18.8281 2.26562 25.0781C2.26562 31.3281 4.84375 37.0312 8.90625 41.0938C13.0469 45.1563 18.75 47.7344 25 47.7344C31.25 47.7344 36.9531 45.2344 41.0156 41.0938C45.1563 37.0312 47.6563 31.3281 47.6563 25.0781C47.6563 18.8281 45.0781 13.125 41.0156 8.98438C36.9531 4.84375 31.25 2.26562 25 2.26562C18.75 2.26562 13.0469 4.84375 8.98438 8.98438Z" fill="rgb(251,251,251)" fill-rule="nonzero" />
		<path id="Vector" d="M6.17188 35L22.1094 23.5156C22.9688 23.9844 24.375 24.6094 24.5312 24.6094C24.6875 24.6875 24.6875 24.5313 24.6875 24.5313L22.7344 22.8906C22.5 22.7344 22.4219 22.5 22.4219 22.2656L24.2969 3.4375C24.2188 3.51562 24.2188 3.67188 24.1406 3.75C24.0625 3.90625 24.0625 3.98438 24.0625 4.14063L21.3281 22.9688L6.32812 34.7656C6.25 34.8438 6.17188 34.9219 6.17188 35Z" fill="rgb(51,63,71)" fill-rule="nonzero" />
	</g>
</svg>
