<svg width="26.212646" height="26.212765" viewBox="0 0 26.2126 26.2128" fill="none" xmlns="http://www.w3.org/2000/svg" xmlns:xlink="http://www.w3.org/1999/xlink">
	<desc>
			Created with Pixso.
	</desc>
	<defs/>
	<rect width="26.212765" height="26.212765" fill="#FFFFFF" fill-opacity="0"/>
	<path d="M14.89 22.63L14.89 13.94L17.86 13.94L18.31 10.55L14.89 10.55L14.89 8.38C14.89 7.4 15.16 6.73 16.6 6.73L18.43 6.73L18.43 3.7C18.11 3.66 17.03 3.57 15.76 3.57C13.13 3.57 11.32 5.15 11.32 8.05L11.32 10.55L8.34 10.55L8.34 13.94L11.32 13.94L11.32 22.63L14.89 22.63Z" fill="#FFFFFF" fill-opacity="1.000000" fill-rule="nonzero"/>
	<mask id="mask2_11" mask-type="alpha" maskUnits="userSpaceOnUse" x="8.340576" y="3.574493" width="10.092616" height="19.063829">
		<path d="M14.89 22.63L14.89 13.94L17.86 13.94L18.31 10.55L14.89 10.55L14.89 8.38C14.89 7.4 15.16 6.73 16.6 6.73L18.43 6.73L18.43 3.7C18.11 3.66 17.03 3.57 15.76 3.57C13.13 3.57 11.32 5.15 11.32 8.05L11.32 10.55L8.34 10.55L8.34 13.94L11.32 13.94L11.32 22.63L14.89 22.63Z" fill="#FFFFFF" fill-opacity="1.000000" fill-rule="nonzero"/>
	</mask>
	<g mask="url(#mask2_11)">
		<rect width="26.212765" height="26.212765" fill="#FFFFFF" fill-opacity="0"/>
		<rect width="26.212765" height="26.212765" fill="#FFFFFF" fill-opacity="1.000000"/>
	</g>
</svg>
